M48
; DRILL file {KiCad (6.0.11-0)} date 
; FORMAT={-:-/ absolute / inch / decimal}
; #@! TF.CreationDate,2025-01-16T19:01:02+02:00
; #@! TF.GenerationSoftware,Kicad,Pcbnew,(6.0.11-0)
; #@! TF.FileFunction,Plated,1,2,PTH
FMAT,2
INCH
; #@! TA.AperFunction,Plated,PTH,ViaDrill
T1C0.0157
; #@! TA.AperFunction,Plated,PTH,ComponentDrill
T2C0.0374
; #@! TA.AperFunction,Plated,PTH,ComponentDrill
T3C0.0394
; #@! TA.AperFunction,Plated,PTH,ComponentDrill
T4C0.0402
; #@! TA.AperFunction,Plated,PTH,ComponentDrill
T5C0.0512
%
G90
G05
T1
X1.48Y-1.85
X1.615Y-1.85
X1.665Y-3.645
X1.6706Y-2.33
X1.755Y-1.85
X1.755Y-2.55
X1.755Y-2.675
X1.755Y-2.805
X1.755Y-2.935
X1.76Y-2.42
X1.8056Y-2.33
X1.885Y-1.85
X1.945Y-2.33
X1.995Y-2.165
X2.09Y-3.555
X2.09Y-3.77
X2.09Y-4.235
X2.155Y-2.98
X2.185Y-2.95
X2.195Y-2.165
X2.215Y-2.92
X2.235Y-2.12
X2.245Y-2.89
X2.275Y-2.285
X2.315Y-2.24
X2.41Y-1.515
X2.41Y-2.21
X2.41Y-3.07
X2.435Y-4.03
X2.435Y-4.065
X2.435Y-4.1
X2.435Y-4.135
X2.435Y-4.17
X2.4526Y-4.2924
X2.4526Y-4.7824
X2.47Y-4.17
X2.475Y-3.24
X2.48Y-3.33
X2.48Y-3.375
X2.48Y-3.42
X2.48Y-3.465
X2.505Y-4.17
X2.515Y-2.465
X2.515Y-3.115
X2.54Y-4.17
X2.545Y-1.815
X2.575Y-4.03
X2.575Y-4.065
X2.575Y-4.1
X2.575Y-4.135
X2.575Y-4.17
X2.665Y-3.4
X2.665Y-3.44
X2.665Y-3.48
X2.665Y-3.52
X2.745Y-2.465
X2.775Y-4.44
X2.79Y-3.445
X2.795Y-3.6466
X2.835Y-4.44
X2.885Y-2.82
X2.89Y-2.1
X2.9244Y-3.5
X3.005Y-3.5
X3.045Y-2.82
X3.165Y-3.5
X3.1816Y-3.8434
X3.185Y-4.95
X3.205Y-2.82
X3.24Y-4.49
X3.245Y-3.5
X3.305Y-4.865
X3.315Y-1.785
X3.37Y-2.82
X3.415Y-1.435
T2
X2.095Y-4.3647
X2.095Y-4.4631
X2.095Y-4.5616
X2.095Y-4.66
X2.0957Y-4.8966
X2.0957Y-4.995
X2.0957Y-5.0934
T3
X1.555Y-4.6616
X1.555Y-4.76
X1.555Y-4.9966
X1.555Y-5.095
X1.6Y-2.5338
X1.6Y-2.6338
X1.6Y-2.7338
X1.6Y-2.8338
X1.6Y-2.9338
X1.6Y-3.0338
X1.6Y-3.1338
X1.6Y-3.2338
X1.825Y-4.6616
X1.825Y-4.76
X1.825Y-4.9966
X1.825Y-5.095
X2.0926Y-1.415
X2.0926Y-1.515
X2.0926Y-1.615
X2.0926Y-1.715
X2.0926Y-1.815
X2.0926Y-1.915
X2.0926Y-2.015
X2.0926Y-2.115
X2.0926Y-2.215
X2.0926Y-2.315
X2.0926Y-2.415
X2.0926Y-2.515
X2.0926Y-2.615
X2.0926Y-2.715
X2.0926Y-2.815
X2.0926Y-2.915
X2.0926Y-3.015
X2.0926Y-3.115
X2.0926Y-3.215
X2.0926Y-3.315
X2.6926Y-1.415
X2.6926Y-1.515
X2.6926Y-1.615
X2.6926Y-1.715
X2.6926Y-1.815
X2.6926Y-1.915
X2.6926Y-2.015
X2.6926Y-2.115
X2.6926Y-2.215
X2.6926Y-2.315
X2.6926Y-2.415
X2.6926Y-2.515
X2.6926Y-2.615
X2.6926Y-2.715
X2.6926Y-2.815
X2.6926Y-2.915
X2.6926Y-3.015
X2.6926Y-3.115
X2.6926Y-3.215
X2.6926Y-3.315
X3.26Y-1.8654
X3.26Y-2.1646
T4
X3.1018Y-4.3946
X3.1018Y-4.4946
X3.1018Y-4.5946
X3.1018Y-4.6946
X3.1018Y-4.8396
X3.1018Y-4.9396
X3.1018Y-5.0396
X3.1018Y-5.1396
X3.3868Y-4.3946
X3.3868Y-4.4946
X3.3868Y-4.5946
X3.3868Y-4.6946
X3.3868Y-4.8396
X3.3868Y-4.9396
X3.3868Y-5.0396
X3.3868Y-5.1396
T5
X1.4735Y-3.6466
X1.4735Y-3.8434
X1.9657Y-3.6466
X1.9657Y-3.8434
X2.211Y-3.6466
X2.211Y-3.8434
X2.61Y-5.0189
X2.7032Y-3.6466
X2.7032Y-3.8434
X2.8069Y-5.0189
X2.9485Y-3.6466
X2.9485Y-3.8434
X3.4407Y-3.6466
X3.4407Y-3.8434
T0
M30
