%TF.GenerationSoftware,KiCad,Pcbnew,(6.0.11-0)*%
%TF.CreationDate,2025-01-16T19:00:56+02:00*%
%TF.ProjectId,Fan_controller,46616e5f-636f-46e7-9472-6f6c6c65722e,rev?*%
%TF.SameCoordinates,Original*%
%TF.FileFunction,Paste,Bot*%
%TF.FilePolarity,Positive*%
%FSLAX46Y46*%
G04 Gerber Fmt 4.6, Leading zero omitted, Abs format (unit mm)*
G04 Created by KiCad (PCBNEW (6.0.11-0)) date 2025-01-16 19:00:56*
%MOMM*%
%LPD*%
G01*
G04 APERTURE LIST*
G04 Aperture macros list*
%AMRoundRect*
0 Rectangle with rounded corners*
0 $1 Rounding radius*
0 $2 $3 $4 $5 $6 $7 $8 $9 X,Y pos of 4 corners*
0 Add a 4 corners polygon primitive as box body*
4,1,4,$2,$3,$4,$5,$6,$7,$8,$9,$2,$3,0*
0 Add four circle primitives for the rounded corners*
1,1,$1+$1,$2,$3*
1,1,$1+$1,$4,$5*
1,1,$1+$1,$6,$7*
1,1,$1+$1,$8,$9*
0 Add four rect primitives between the rounded corners*
20,1,$1+$1,$2,$3,$4,$5,0*
20,1,$1+$1,$4,$5,$6,$7,0*
20,1,$1+$1,$6,$7,$8,$9,0*
20,1,$1+$1,$8,$9,$2,$3,0*%
%AMOutline4P*
0 Free polygon, 4 corners , with rotation*
0 The origin of the aperture is its center*
0 number of corners: always 4*
0 $1 to $8 corner X, Y*
0 $9 Rotation angle, in degrees counterclockwise*
0 create outline with 4 corners*
4,1,4,$1,$2,$3,$4,$5,$6,$7,$8,$1,$2,$9*%
%AMFreePoly0*
4,1,9,3.862500,-0.866500,0.737500,-0.866500,0.737500,-0.450000,-0.737500,-0.450000,-0.737500,0.450000,0.737500,0.450000,0.737500,0.866500,3.862500,0.866500,3.862500,-0.866500,3.862500,-0.866500,$1*%
G04 Aperture macros list end*
%ADD10RoundRect,0.250000X0.350000X0.450000X-0.350000X0.450000X-0.350000X-0.450000X0.350000X-0.450000X0*%
%ADD11RoundRect,0.150000X0.150000X-0.587500X0.150000X0.587500X-0.150000X0.587500X-0.150000X-0.587500X0*%
%ADD12RoundRect,0.250000X0.475000X-0.337500X0.475000X0.337500X-0.475000X0.337500X-0.475000X-0.337500X0*%
%ADD13RoundRect,0.250000X-0.350000X-0.450000X0.350000X-0.450000X0.350000X0.450000X-0.350000X0.450000X0*%
%ADD14RoundRect,0.250000X0.337500X0.475000X-0.337500X0.475000X-0.337500X-0.475000X0.337500X-0.475000X0*%
%ADD15R,1.780000X2.000000*%
%ADD16RoundRect,0.250000X-0.475000X0.337500X-0.475000X-0.337500X0.475000X-0.337500X0.475000X0.337500X0*%
%ADD17RoundRect,0.250000X-0.450000X0.350000X-0.450000X-0.350000X0.450000X-0.350000X0.450000X0.350000X0*%
%ADD18Outline4P,-1.800000X-1.150000X1.800000X-0.550000X1.800000X0.550000X-1.800000X1.150000X270.000000*%
%ADD19Outline4P,-1.800000X-1.150000X1.800000X-0.550000X1.800000X0.550000X-1.800000X1.150000X90.000000*%
%ADD20RoundRect,0.250000X0.550000X-1.500000X0.550000X1.500000X-0.550000X1.500000X-0.550000X-1.500000X0*%
%ADD21R,1.200000X0.900000*%
%ADD22RoundRect,0.250000X-0.550000X1.250000X-0.550000X-1.250000X0.550000X-1.250000X0.550000X1.250000X0*%
%ADD23RoundRect,0.250000X0.450000X-0.350000X0.450000X0.350000X-0.450000X0.350000X-0.450000X-0.350000X0*%
%ADD24RoundRect,0.150000X0.150000X-0.825000X0.150000X0.825000X-0.150000X0.825000X-0.150000X-0.825000X0*%
%ADD25R,0.900000X1.300000*%
%ADD26FreePoly0,270.000000*%
G04 APERTURE END LIST*
D10*
%TO.C,R14*%
X74533000Y-41910000D03*
X72533000Y-41910000D03*
%TD*%
D11*
%TO.C,Q1*%
X75372000Y-51483500D03*
X73472000Y-51483500D03*
X74422000Y-49608500D03*
%TD*%
D12*
%TO.C,C4*%
X47879000Y-50313500D03*
X47879000Y-48238500D03*
%TD*%
D13*
%TO.C,R25*%
X84471000Y-84328000D03*
X86471000Y-84328000D03*
%TD*%
D12*
%TO.C,C3*%
X44450000Y-50313500D03*
X44450000Y-48238500D03*
%TD*%
D14*
%TO.C,C7*%
X48027500Y-61468000D03*
X45952500Y-61468000D03*
%TD*%
%TO.C,C10*%
X48027500Y-67945000D03*
X45952500Y-67945000D03*
%TD*%
D15*
%TO.C,U3*%
X57785000Y-109027000D03*
X60325000Y-109027000D03*
X60325000Y-118557000D03*
X57785000Y-118557000D03*
%TD*%
D12*
%TO.C,C1*%
X37592000Y-50313500D03*
X37592000Y-48238500D03*
%TD*%
D16*
%TO.C,C8*%
X58928000Y-100880000D03*
X58928000Y-102955000D03*
%TD*%
D14*
%TO.C,C13*%
X48027500Y-74549000D03*
X45952500Y-74549000D03*
%TD*%
D10*
%TO.C,R11*%
X75422000Y-58293000D03*
X73422000Y-58293000D03*
%TD*%
D13*
%TO.C,R24*%
X76343000Y-84328000D03*
X78343000Y-84328000D03*
%TD*%
D10*
%TO.C,R12*%
X74533000Y-38481000D03*
X72533000Y-38481000D03*
%TD*%
D13*
%TO.C,R20*%
X80407000Y-87503000D03*
X82407000Y-87503000D03*
%TD*%
D10*
%TO.C,R5*%
X75422000Y-61595000D03*
X73422000Y-61595000D03*
%TD*%
D13*
%TO.C,R22*%
X84471000Y-87503000D03*
X86471000Y-87503000D03*
%TD*%
D17*
%TO.C,R17*%
X78105000Y-34687000D03*
X78105000Y-36687000D03*
%TD*%
D18*
%TO.C,D1*%
X65278000Y-114829000D03*
D19*
X65278000Y-120629000D03*
%TD*%
D15*
%TO.C,U4*%
X57785000Y-121473000D03*
X60325000Y-121473000D03*
X60325000Y-131003000D03*
X57785000Y-131003000D03*
%TD*%
D20*
%TO.C,C5*%
X71247000Y-120937000D03*
X71247000Y-115537000D03*
%TD*%
D16*
%TO.C,C6*%
X68453000Y-100880000D03*
X68453000Y-102955000D03*
%TD*%
D10*
%TO.C,R13*%
X74533000Y-45212000D03*
X72533000Y-45212000D03*
%TD*%
D13*
%TO.C,R7*%
X76343000Y-79121000D03*
X78343000Y-79121000D03*
%TD*%
D21*
%TO.C,D6*%
X73660000Y-76199000D03*
X73660000Y-72899000D03*
%TD*%
%TO.C,D3*%
X81788000Y-76199000D03*
X81788000Y-72899000D03*
%TD*%
D22*
%TO.C,C9*%
X53086000Y-100924000D03*
X53086000Y-105324000D03*
%TD*%
D23*
%TO.C,R2*%
X41021000Y-59166000D03*
X41021000Y-57166000D03*
%TD*%
D14*
%TO.C,C11*%
X48027500Y-71247000D03*
X45952500Y-71247000D03*
%TD*%
D10*
%TO.C,R10*%
X75422000Y-54991000D03*
X73422000Y-54991000D03*
%TD*%
D24*
%TO.C,U2*%
X88011000Y-43496000D03*
X86741000Y-43496000D03*
X85471000Y-43496000D03*
X84201000Y-43496000D03*
X84201000Y-38546000D03*
X85471000Y-38546000D03*
X86741000Y-38546000D03*
X88011000Y-38546000D03*
%TD*%
D23*
%TO.C,R30*%
X47879000Y-54721000D03*
X47879000Y-52721000D03*
%TD*%
%TO.C,R15*%
X46990000Y-114157000D03*
X46990000Y-112157000D03*
%TD*%
%TO.C,R16*%
X43561000Y-114157000D03*
X43561000Y-112157000D03*
%TD*%
D14*
%TO.C,C12*%
X48027500Y-64770000D03*
X45952500Y-64770000D03*
%TD*%
D13*
%TO.C,R21*%
X76343000Y-87503000D03*
X78343000Y-87503000D03*
%TD*%
D12*
%TO.C,C2*%
X41021000Y-50313500D03*
X41021000Y-48238500D03*
%TD*%
D17*
%TO.C,R18*%
X81534000Y-34687000D03*
X81534000Y-36687000D03*
%TD*%
D23*
%TO.C,R4*%
X47879000Y-59166000D03*
X47879000Y-57166000D03*
%TD*%
D13*
%TO.C,R9*%
X72279000Y-79121000D03*
X74279000Y-79121000D03*
%TD*%
%TO.C,R8*%
X84598000Y-79121000D03*
X86598000Y-79121000D03*
%TD*%
D23*
%TO.C,R1*%
X37592000Y-59166000D03*
X37592000Y-57166000D03*
%TD*%
D13*
%TO.C,R6*%
X80407000Y-79121000D03*
X82407000Y-79121000D03*
%TD*%
D23*
%TO.C,R28*%
X41021000Y-54721000D03*
X41021000Y-52721000D03*
%TD*%
%TO.C,R3*%
X44450000Y-59166000D03*
X44450000Y-57166000D03*
%TD*%
D13*
%TO.C,R23*%
X80407000Y-84328000D03*
X82407000Y-84328000D03*
%TD*%
D21*
%TO.C,D4*%
X77724000Y-76199000D03*
X77724000Y-72899000D03*
%TD*%
D23*
%TO.C,R27*%
X37592000Y-54721000D03*
X37592000Y-52721000D03*
%TD*%
D13*
%TO.C,R19*%
X72279000Y-87503000D03*
X74279000Y-87503000D03*
%TD*%
D25*
%TO.C,U1*%
X62127000Y-100902500D03*
D26*
X63627000Y-100990000D03*
D25*
X65127000Y-100902500D03*
%TD*%
D23*
%TO.C,R29*%
X44450000Y-54721000D03*
X44450000Y-52721000D03*
%TD*%
D21*
%TO.C,D5*%
X85979000Y-76199000D03*
X85979000Y-72899000D03*
%TD*%
D13*
%TO.C,R26*%
X72279000Y-84328000D03*
X74279000Y-84328000D03*
%TD*%
M02*
