%TF.GenerationSoftware,KiCad,Pcbnew,(6.0.11-0)*%
%TF.CreationDate,2025-01-16T19:00:56+02:00*%
%TF.ProjectId,Fan_controller,46616e5f-636f-46e7-9472-6f6c6c65722e,rev?*%
%TF.SameCoordinates,Original*%
%TF.FileFunction,Soldermask,Top*%
%TF.FilePolarity,Negative*%
%FSLAX46Y46*%
G04 Gerber Fmt 4.6, Leading zero omitted, Abs format (unit mm)*
G04 Created by KiCad (PCBNEW (6.0.11-0)) date 2025-01-16 19:00:56*
%MOMM*%
%LPD*%
G01*
G04 APERTURE LIST*
G04 Aperture macros list*
%AMRoundRect*
0 Rectangle with rounded corners*
0 $1 Rounding radius*
0 $2 $3 $4 $5 $6 $7 $8 $9 X,Y pos of 4 corners*
0 Add a 4 corners polygon primitive as box body*
4,1,4,$2,$3,$4,$5,$6,$7,$8,$9,$2,$3,0*
0 Add four circle primitives for the rounded corners*
1,1,$1+$1,$2,$3*
1,1,$1+$1,$4,$5*
1,1,$1+$1,$6,$7*
1,1,$1+$1,$8,$9*
0 Add four rect primitives between the rounded corners*
20,1,$1+$1,$2,$3,$4,$5,0*
20,1,$1+$1,$4,$5,$6,$7,0*
20,1,$1+$1,$6,$7,$8,$9,0*
20,1,$1+$1,$8,$9,$2,$3,0*%
G04 Aperture macros list end*
%ADD10R,1.700000X1.700000*%
%ADD11O,1.700000X1.700000*%
%ADD12O,3.048000X1.850000*%
%ADD13C,3.200000*%
%ADD14R,2.030000X1.730000*%
%ADD15O,2.030000X1.730000*%
%ADD16RoundRect,0.250000X0.750000X-0.600000X0.750000X0.600000X-0.750000X0.600000X-0.750000X-0.600000X0*%
%ADD17O,2.000000X1.700000*%
%ADD18RoundRect,0.250000X0.725000X-0.600000X0.725000X0.600000X-0.725000X0.600000X-0.725000X-0.600000X0*%
%ADD19O,1.950000X1.700000*%
%ADD20R,2.600000X2.600000*%
%ADD21C,2.600000*%
%ADD22R,2.000000X2.000000*%
%ADD23C,2.000000*%
G04 APERTURE END LIST*
D10*
%TO.C,D7*%
X40640000Y-82139000D03*
D11*
X40640000Y-79599000D03*
X40640000Y-77059000D03*
X40640000Y-74519000D03*
X40640000Y-71979000D03*
X40640000Y-69439000D03*
X40640000Y-66899000D03*
X40640000Y-64359000D03*
%TD*%
D12*
%TO.C,SW2*%
X87393000Y-97623000D03*
X74893000Y-97623000D03*
X87393000Y-92623000D03*
X74893000Y-92623000D03*
%TD*%
D13*
%TO.C,REF\u002A\u002A*%
X79375000Y-104902000D03*
%TD*%
D12*
%TO.C,SW3*%
X56160500Y-97623000D03*
X68660500Y-97623000D03*
X56160500Y-92623000D03*
X68660500Y-92623000D03*
%TD*%
%TO.C,SW1*%
X37428000Y-97623000D03*
X49928000Y-97623000D03*
X37428000Y-92623000D03*
X49928000Y-92623000D03*
%TD*%
D13*
%TO.C,REF\u002A\u002A*%
X45375000Y-41902000D03*
%TD*%
%TO.C,REF\u002A\u002A*%
X45375000Y-104902000D03*
%TD*%
%TO.C,REF\u002A\u002A*%
X79375000Y-41902000D03*
%TD*%
D14*
%TO.C,J11*%
X78786000Y-130546000D03*
D15*
X78786000Y-128006000D03*
X78786000Y-125466000D03*
X78786000Y-122926000D03*
%TD*%
D16*
%TO.C,J3*%
X39497000Y-120904000D03*
D17*
X39497000Y-118404000D03*
%TD*%
D14*
%TO.C,J12*%
X78786000Y-119243000D03*
D15*
X78786000Y-116703000D03*
X78786000Y-114163000D03*
X78786000Y-111623000D03*
%TD*%
D10*
%TO.C,D2*%
X68393000Y-35941000D03*
D11*
X68393000Y-38481000D03*
X68393000Y-41021000D03*
X68393000Y-43561000D03*
X68393000Y-46101000D03*
X68393000Y-48641000D03*
X68393000Y-51181000D03*
X68393000Y-53721000D03*
X68393000Y-56261000D03*
X68393000Y-58801000D03*
X68393000Y-61341000D03*
X68393000Y-63881000D03*
X68393000Y-66421000D03*
X68393000Y-68961000D03*
X68393000Y-71501000D03*
X68393000Y-74041000D03*
X68393000Y-76581000D03*
X68393000Y-79121000D03*
X68393000Y-81661000D03*
X68393000Y-84201000D03*
D10*
X53153000Y-84201000D03*
D11*
X53153000Y-81661000D03*
X53153000Y-79121000D03*
X53153000Y-76581000D03*
X53153000Y-74041000D03*
X53153000Y-71501000D03*
X53153000Y-68961000D03*
X53153000Y-66421000D03*
X53153000Y-63881000D03*
X53153000Y-61341000D03*
X53153000Y-58801000D03*
X53153000Y-56261000D03*
X53153000Y-53721000D03*
X53153000Y-51181000D03*
X53153000Y-48641000D03*
X53153000Y-46101000D03*
X53153000Y-43561000D03*
X53153000Y-41021000D03*
X53153000Y-38481000D03*
X53153000Y-35941000D03*
%TD*%
D18*
%TO.C,J7*%
X53213000Y-118364000D03*
D19*
X53213000Y-115864000D03*
X53213000Y-113364000D03*
X53213000Y-110864000D03*
%TD*%
D16*
%TO.C,J5*%
X46355000Y-120904000D03*
D17*
X46355000Y-118404000D03*
%TD*%
D20*
%TO.C,J1*%
X66294000Y-127480000D03*
D21*
X71294000Y-127480000D03*
%TD*%
D16*
%TO.C,J2*%
X39497000Y-129413000D03*
D17*
X39497000Y-126913000D03*
%TD*%
D18*
%TO.C,J8*%
X53230000Y-129373000D03*
D19*
X53230000Y-126873000D03*
X53230000Y-124373000D03*
%TD*%
D16*
%TO.C,J4*%
X46355000Y-129413000D03*
D17*
X46355000Y-126913000D03*
%TD*%
D14*
%TO.C,J9*%
X86025000Y-130546000D03*
D15*
X86025000Y-128006000D03*
X86025000Y-125466000D03*
X86025000Y-122926000D03*
%TD*%
D22*
%TO.C,BZ1*%
X82804000Y-54981000D03*
D23*
X82804000Y-47381000D03*
%TD*%
D14*
%TO.C,J10*%
X86025000Y-119243000D03*
D15*
X86025000Y-116703000D03*
X86025000Y-114163000D03*
X86025000Y-111623000D03*
%TD*%
M02*
